<?xml version="1.0" encoding="UTF-8"?>
<svg version="1.1" xmlns="http://www.w3.org/2000/svg" width="1024" height="1024">
<path d="M0 0 C337.92 0 675.84 0 1024 0 C1024 337.92 1024 675.84 1024 1024 C686.08 1024 348.16 1024 0 1024 C0 686.08 0 348.16 0 0 Z " fill="#061B33" transform="translate(0,0)"/>
<path d="M0 0 C3.01689442 0.00314184 6.03278797 -0.02029913 9.04956055 -0.0456543 C38.01630467 -0.1408884 67.20834978 4.81386122 88.81713867 25.55395508 C96.74609671 33.80709539 101.62964554 43.51691135 106.62963867 53.67895508 C107.19263672 54.82041992 107.75563477 55.96188477 108.33569336 57.13793945 C109.45317709 59.41625483 110.55982026 61.6999286 111.65405273 63.98950195 C116.30844668 73.5391827 120.83030143 82.06516179 130.86010742 86.50317383 C131.54782227 86.82576172 132.23553711 87.14834961 132.9440918 87.48071289 C143.4780869 92.29965816 154.35104901 95.94957719 165.61303711 98.63916016 C172.20961389 100.21684408 178.76151682 101.95042629 185.30627441 103.73052979 C187.17967352 104.23815324 189.05550592 104.73676978 190.93139648 105.23510742 C217.21471877 112.41009084 217.21471877 112.41009084 224.48510742 123.31567383 C226.0494662 131.57372012 222.90977992 137.29699112 218.73510742 144.19067383 C213.1250748 153.95351378 209.43497752 162.78877598 207.11010742 173.81567383 C203.34848281 190.6524642 192.1446963 204.27501355 177.79760742 213.50317383 C166.78560201 219.79083994 155.54287269 222.43703176 142.97436523 222.44165039 C142.27070831 222.44351852 141.56705139 222.44538666 140.84207153 222.4473114 C139.32856864 222.45128426 137.81505987 222.45338734 136.30155182 222.4537735 C133.06427282 222.4572327 129.82718695 222.4786483 126.58997726 222.49900436 C120.58233666 222.53678051 114.57491217 222.56829464 108.56713867 222.56616211 C104.36898609 222.56536941 100.17155765 222.5889667 95.97359467 222.62804413 C94.38704444 222.6384142 92.80040972 222.64009543 91.2138443 222.63239288 C77.51575953 222.57252176 66.84455665 225.05288605 56.73901367 234.86645508 C46.63273846 245.84849071 42.05594179 258.01369422 42.20385742 272.89770508 C43.65167792 290.49274583 51.93977971 305.21340245 65.21166992 316.51489258 C70.68999372 321.31332883 70.68999372 321.31332883 77.35620117 323.28833008 C80.62016273 321.79708893 82.80624907 319.25823602 85.23510742 316.69067383 C86.31128183 315.58200623 87.38940311 314.47522507 88.46948242 313.37036133 C89.2496875 312.57130371 89.2496875 312.57130371 90.0456543 311.75610352 C91.78491537 310.01566248 93.60562363 308.40296896 95.48510742 306.81567383 C98.94947316 303.87490788 102.11847816 300.68213896 105.29760742 297.44067383 C110.7114326 291.96259964 116.38605942 287.03037242 122.48510742 282.31567383 C123.33468018 281.65148437 123.33468018 281.65148437 124.20141602 280.97387695 C134.50314942 272.9439773 145.26396006 265.76930979 156.2644043 258.73754883 C168.22186735 251.08140714 179.73954741 243.06435695 190.19604492 233.42114258 C192.21422009 231.5648347 194.27103475 229.77845575 196.36010742 228.00317383 C203.96043616 221.37408385 211.10600483 214.11510963 217.64526367 206.44067383 C220.03537031 203.68012603 222.50977566 200.9994983 224.98510742 198.31567383 C228.05774444 194.98353752 231.09925736 191.63390061 234.04760742 188.19067383 C243.46725712 177.38380731 254.13186561 168.36096974 265.73510742 160.00317383 C266.30132813 159.59454102 266.86754883 159.1859082 267.45092773 158.76489258 C277.95702161 151.31567383 277.95702161 151.31567383 281.48510742 151.31567383 C287.64030317 169.78126107 282.16485787 197.34980085 277.80639648 216.14038086 C276.9257733 219.94836865 276.24999326 223.37359297 276.48510742 227.31567383 C277.18893555 227.51161133 277.89276367 227.70754883 278.61791992 227.90942383 C291.54445219 231.82450932 302.32269959 238.49483799 312.48510742 247.31567383 C313.3281543 248.0143457 314.17120117 248.71301758 315.03979492 249.43286133 C327.56728997 260.13263674 334.17371083 272.29644337 337.86010742 288.12817383 C341.53738562 303.61809823 348.27064643 314.22511198 359.48510742 325.31567383 C360.76944736 326.60034461 362.05328632 327.88551642 363.33666992 329.17114258 C365.22648296 331.06310124 367.11930807 332.95089124 369.02832031 334.82348633 C373.34176985 339.06891585 374.64228056 340.81286978 374.73510742 346.81567383 C374.51529484 362.23918993 365.62013176 374.2330086 357.42260742 386.69067383 C356.94057861 387.42737305 356.4585498 388.16407227 355.96191406 388.9230957 C351.42703331 395.69982841 346.48939454 402.36096349 339.73510742 407.06567383 C338.99776367 407.59676758 338.26041992 408.12786133 337.50073242 408.67504883 C328.82333358 413.39591348 321.04417994 414.87610816 311.23901367 414.71411133 C308.91414287 414.71884624 306.58927302 414.72406951 304.2644043 414.72973633 C300.65281916 414.71501619 297.04162092 414.69061565 293.43017578 414.65551758 C274.93244021 413.98749579 274.93244021 413.98749579 258.48510742 421.31567383 C257.88851318 421.6941748 257.29191895 422.07267578 256.67724609 422.46264648 C246.75883639 429.44369884 243.23749961 443.5023572 240.67260742 454.62817383 C240.28359253 456.26230225 240.28359253 456.26230225 239.88671875 457.92944336 C238.5380879 463.62800986 237.26084341 469.33410993 236.07885742 475.06958008 C232.45472298 492.35079215 227.64754803 508.98478915 215.48510742 522.31567383 C214.8328418 523.1071582 214.18057617 523.89864258 213.50854492 524.71411133 C199.12980461 541.70716806 180.39874163 550.09727076 159.48510742 556.31567383 C158.48479492 556.6224707 157.48448242 556.92926758 156.45385742 557.24536133 C150.03958858 559.03324661 143.50396257 559.9990952 136.92260742 560.94067383 C135.65755371 561.12569458 135.65755371 561.12569458 134.36694336 561.31445312 C118.73911067 563.40617397 102.85516986 563.55277923 87.11010742 563.56567383 C85.8021521 563.56718445 85.8021521 563.56718445 84.46777344 563.56872559 C58.20507239 563.5485363 32.0175987 561.61962546 6.17553711 556.81420898 C3.59736935 556.3364759 1.01531726 555.89199752 -1.56958008 555.45239258 C-15.57328572 552.97017693 -29.0309185 548.78447864 -42.51489258 544.31567383 C-43.28816895 544.06060059 -44.06144531 543.80552734 -44.8581543 543.54272461 C-73.95974123 533.76398411 -101.37409153 517.62785208 -123.51489258 496.31567383 C-124.06467773 495.7969873 -124.61446289 495.27830078 -125.1809082 494.74389648 C-139.12499632 481.5449409 -150.67886258 466.79286643 -160.51489258 450.31567383 C-160.91272949 449.6555127 -161.31056641 448.99535156 -161.72045898 448.31518555 C-177.74298523 421.46510742 -186.48782612 392.36085432 -189.51489258 361.31567383 C-189.64508789 360.1684082 -189.7752832 359.02114258 -189.90942383 357.83911133 C-194.70945773 309.32676865 -183.41378315 259.58683653 -159.51489258 217.31567383 C-155.93849815 218.94596341 -152.89761137 221.09931967 -149.70239258 223.37817383 C-130.43063695 236.84950621 -108.60341363 249.41796497 -84.51489258 250.31567383 C-83.49911133 250.36723633 -82.48333008 250.41879883 -81.43676758 250.47192383 C-66.62929301 250.89298946 -51.80534898 246.42900636 -40.63989258 236.37817383 C-22.90715368 216.92509459 -23.0856815 187.2360755 -23.13989258 162.44067383 C-23.14010406 161.53158264 -23.14031555 160.62249146 -23.14053345 159.68585205 C-23.20488194 131.43777752 -25.95774086 103.30886431 -30.07739258 75.37817383 C-30.22692886 74.3464505 -30.22692886 74.3464505 -30.37948608 73.29388428 C-30.66286909 71.37339453 -30.9653832 69.45575694 -31.26879883 67.53833008 C-31.52125366 65.94130249 -31.52125366 65.94130249 -31.77880859 64.31201172 C-32.60060665 60.9667621 -33.76490505 58.27996052 -35.51489258 55.31567383 C-37.95299413 54.16092771 -37.95299413 54.16092771 -40.51489258 54.31567383 C-41.50489258 54.97567383 -42.49489258 55.63567383 -43.51489258 56.31567383 C-43.62836691 59.11879663 -43.55787487 61.66091767 -43.32739258 64.44067383 C-43.28291992 65.15610352 -43.23844727 65.8715332 -43.19262695 66.60864258 C-42.83853359 71.70583842 -42.21784906 76.75658648 -41.56567383 81.82348633 C-38.12132883 108.75279502 -37.20819183 135.75302372 -37.13989258 162.87817383 C-37.12838165 164.82149597 -37.12838165 164.82149597 -37.11663818 166.80407715 C-36.905701 211.28713158 -36.905701 211.28713158 -50.63989258 227.44848633 C-57.98885892 234.76683197 -67.79065606 237.64139872 -77.99609375 237.78442383 C-79.27383667 237.76895508 -79.27383667 237.76895508 -80.57739258 237.75317383 C-81.48787354 237.74415039 -82.39835449 237.73512695 -83.33642578 237.72583008 C-109.32259027 237.07226136 -132.33628752 224.09695325 -151.51489258 207.31567383 C-152.00731445 206.88496582 -152.49973633 206.45425781 -153.00708008 206.01049805 C-167.00760252 193.68453048 -188.92471464 173.77577082 -190.26489258 153.81567383 C-188.61394718 130.50432488 -161.76718785 104.10944853 -147.51489258 86.31567383 C-146.73114258 85.33598633 -145.94739258 84.35629883 -145.13989258 83.34692383 C-140.82450115 78.01262054 -136.37251488 72.83842863 -131.74926758 67.76879883 C-130.28890506 66.16546376 -128.84038898 64.55123642 -127.40551758 62.92504883 C-117.01493799 51.1692836 -106.13206046 40.65058063 -93.51489258 31.31567383 C-92.22131836 30.34694336 -92.22131836 30.34694336 -90.90161133 29.35864258 C-76.25967304 18.74263823 -60.07467562 10.8195656 -42.82739258 5.50317383 C-41.88968018 5.2130542 -40.95196777 4.92293457 -39.98583984 4.62402344 C-26.59932518 0.65916439 -13.879217 -0.03013097 0 0 Z " fill="#ECE8DF" transform="translate(435.514892578125,245.684326171875)"/>
<path d="M0 0 C6.55291527 1.25190023 12.18537123 3.10766306 18.1875 6 C19.01193604 6.39590332 19.83637207 6.79180664 20.68579102 7.19970703 C42.72709845 18.10599648 59.57756104 35.61591491 71.80273438 56.765625 C72.27646484 57.55839844 72.75019531 58.35117187 73.23828125 59.16796875 C73.65118408 59.88235107 74.06408691 60.5967334 74.48950195 61.33276367 C76.5347479 63.59023653 77.99648801 63.83276659 81 64 C83.4103748 62.50641763 85.44529821 61.02985579 87.625 59.25 C101.80159111 48.3208866 117.27757328 40.29419617 134 34 C135.04542969 33.60296875 136.09085938 33.2059375 137.16796875 32.796875 C140.42082973 31.69063888 143.66258691 30.82156951 147 30 C147.84224121 29.78714355 148.68448242 29.57428711 149.55224609 29.35498047 C163.09443892 26.03461661 176.22600036 24.52829148 190.125 24.5625 C191.1391095 24.56243958 191.1391095 24.56243958 192.17370605 24.56237793 C205.91915125 24.61007902 219.498104 25.84675647 232.75 29.625 C233.67264648 29.88442383 234.59529297 30.14384766 235.54589844 30.41113281 C258.25300345 37.00851976 278.42828426 47.41186234 297 62 C297.97453125 62.76183594 298.9490625 63.52367187 299.953125 64.30859375 C310.85665072 73.04699079 320.86800062 82.41968686 330 93 C331.20462891 94.37285156 331.20462891 94.37285156 332.43359375 95.7734375 C333.54927734 97.09214844 333.54927734 97.09214844 334.6875 98.4375 C335.35136719 99.21996094 336.01523437 100.00242187 336.69921875 100.80859375 C338 103 338 103 337.88696289 104.80639648 C336.59943313 107.99066702 334.52827636 109.86124001 332.109375 112.2890625 C331.35868744 113.04405533 331.35868744 113.04405533 330.59283447 113.81430054 C329.5271663 114.88201006 328.45770071 115.94594085 327.38476562 117.00634766 C325.78689909 118.58846461 324.20529098 120.1855087 322.625 121.78515625 C312.89376111 131.53917093 302.49492123 140.05009569 290.4375 146.8125 C289.6223291 147.27479004 288.8071582 147.73708008 287.96728516 148.21337891 C281.81533991 151.65090788 275.67911742 154.71099301 269 157 C268.09362793 157.31227539 268.09362793 157.31227539 267.16894531 157.63085938 C224.03666228 172.18613747 178.97908528 164.52566632 138.73095703 145.04638672 C119.26621753 135.37878749 101.10165172 123.78566926 83.84375 110.5859375 C82.8846875 109.85632813 81.925625 109.12671875 80.9375 108.375 C80.10089844 107.72273437 79.26429688 107.07046875 78.40234375 106.3984375 C75.5740107 104.75202574 74.22506934 104.64591682 71 105 C69.10179166 106.26126697 69.10179166 106.26126697 67.50390625 108.11328125 C66.87009033 108.77908203 66.23627441 109.44488281 65.58325195 110.13085938 C64.91640381 110.85080078 64.24955566 111.57074219 63.5625 112.3125 C48.46851766 127.97962771 27.48558895 146.0458069 5 148 C6.65555592 142.36741032 9.22554307 137.30694572 11.8125 132.0625 C15.9413449 123.53497522 19.45111589 115.14712749 22 106 C22.25676514 105.14704346 22.51353027 104.29408691 22.77807617 103.4152832 C25.05151837 95.32377014 25.50483037 87.69192519 25.4375 79.3125 C25.43445862 78.65458466 25.43141724 77.99666931 25.42828369 77.31881714 C25.31509304 60.73185965 21.77129975 47.10374975 15 32 C14.6901416 31.30874023 14.3802832 30.61748047 14.06103516 29.90527344 C10.13132943 21.22268174 5.91103627 12.7542812 1.25 4.44140625 C0 2 0 2 0 0 Z " fill="#071B32" transform="translate(296,573)"/>
<path d="M0 0 C5.47440379 3.87740295 10.25522489 8.36181122 14.97265625 13.10546875 C15.81570313 13.94851562 16.65875 14.7915625 17.52734375 15.66015625 C30.16965458 28.94871939 39.18165879 44.45835567 47.65771484 60.61083984 C48.79177931 62.76231975 49.94544665 64.90014982 51.1171875 67.03125 C55.0046261 74.12048359 58.54912541 81.34059727 62.01171875 88.64453125 C67.65947241 100.49921798 73.42559917 112.29160579 79.28515625 124.04296875 C80.03292831 125.5434375 80.03292831 125.5434375 80.79580688 127.07421875 C87.84887222 141.19526523 95.22294405 154.95094687 103.40527344 168.45361328 C106.88754245 174.3452653 110.09276997 180.39474047 113.33276367 186.421875 C113.79787354 187.28554688 114.2629834 188.14921875 114.7421875 189.0390625 C115.15057861 189.80275146 115.55896973 190.56644043 115.97973633 191.35327148 C116.85151221 193.0731856 116.85151221 193.0731856 117.97265625 194.10546875 C118.01329457 195.7716399 118.01537725 197.4393497 117.97265625 199.10546875 C113.5931574 197.52427201 111.14880034 194.08330661 108.28515625 190.60546875 C107.20786019 189.32482306 106.12973027 188.04487838 105.05078125 186.765625 C104.52419922 186.1380127 103.99761719 185.51040039 103.45507812 184.86376953 C92.16722576 171.47524635 80.02406397 159.54174665 65.97265625 149.10546875 C65.14411133 148.47777588 65.14411133 148.47777588 64.29882812 147.83740234 C49.98101442 137.00606925 34.2443873 128.68814528 18.3371582 120.45458984 C-6.13392951 107.78209917 -6.13392951 107.78209917 -17.02734375 99.10546875 C-17.82785156 98.46996094 -18.62835937 97.83445312 -19.453125 97.1796875 C-31.2978634 87.24603294 -35.89411268 75.79671806 -38.96484375 61.04296875 C-40.40501841 54.13597954 -42.22607325 48.1354972 -46.02734375 42.10546875 C-46.58421875 41.19796875 -47.14109375 40.29046875 -47.71484375 39.35546875 C-58.27186235 29.08377497 -72.96388471 26.70790186 -87.02734375 25.10546875 C-86.44476949 21.51890258 -85.12494289 19.80815383 -82.59765625 17.2421875 C-81.89020264 16.52321289 -81.18274902 15.80423828 -80.45385742 15.06347656 C-79.69435791 14.31420898 -78.9348584 13.56494141 -78.15234375 12.79296875 C-77.37802002 12.02694336 -76.60369629 11.26091797 -75.8059082 10.47167969 C-54.57101501 -10.14197405 -25.95640436 -16.03893761 0 0 Z " fill="#ECE8E0" transform="translate(659.02734375,240.89453125)"/>
<path d="M0 0 C4.15600879 3.56229325 5.97277855 7.12655387 6.625 12.4375 C5.94936953 17.7460251 4.17640657 20.73775745 0.6875 24.75 C-2.97257667 27.57740923 -6.70064311 27.51853085 -11.1875 27.29296875 C-14.95201763 26.69355895 -17.05746779 25.4922806 -19.8125 22.875 C-23.11830616 18.13667784 -23.69935336 13.48837868 -22.8125 7.875 C-20.73229889 3.46497365 -18.09628203 0.7130004 -13.80859375 -1.5 C-9.05461258 -2.98852639 -4.50097123 -1.80038849 0 0 Z " fill="#091C31" transform="translate(514.8125,326.125)"/>
<path d="M0 0 C0.66 0 1.32 0 2 0 C1.89715698 0.97791504 1.89715698 0.97791504 1.79223633 1.97558594 C-0.59489685 26.12473986 0.24997438 47.64388821 14.21875 68.27734375 C16 71 16 71 16 73 C6.84298402 70.42458926 0.58599838 61.83344393 -4 54 C-9.63012975 42.10848354 -11.30373719 27.88896416 -7.76953125 15.0234375 C-5.74694835 9.70517383 -3.15267184 4.72900776 0 0 Z " fill="#ECE9E2" transform="translate(534,645)"/>
<path d="M0 0 C4.46309065 7.53146548 4.43995881 14.40858218 4 23 C-4.37260398 23.540168 -10.89822558 22.18891661 -17.6328125 16.953125 C-19.81695379 15.02231671 -21.93395262 13.05606648 -24 11 C-23.62742043 8.46213919 -23.33621434 7.29047635 -21.36328125 5.5859375 C-14.07287186 1.28112433 -8.46650318 -0.33866013 0 0 Z " fill="#081A30" transform="translate(742,535)"/>
<path d="M0 0 C3.10352458 1.60923497 5.21701424 3.00347267 7.375 5.75 C8.52619007 9.89428424 9.13918169 13.93041095 7.01953125 17.78125 C4.76696194 20.60909085 2.52852698 23.09266449 -1 24 C-6.03829462 23.92002707 -8.02815058 23.80642825 -11.9375 20.5625 C-15.05959227 16.68353687 -15.39083049 14.2037258 -15.359375 9.328125 C-14.75455722 5.40995764 -12.83123243 3.69641184 -10 1 C-6.78501861 -0.6074907 -3.48701742 -0.47314549 0 0 Z " fill="#EBE7E0" transform="translate(575,651)"/>
<path d="M0 0 C3.24807785 0.69554798 4.80411173 1.89740194 6.93359375 4.4140625 C8.05859375 7.7890625 8.05859375 7.7890625 7.93359375 11.4140625 C6.20982166 14.44249346 4.09312072 16.83429901 0.93359375 18.4140625 C-3.16437882 18.97287694 -4.83512948 18.5511154 -8.44140625 16.4140625 C-11.52337346 12.89181426 -11.52337346 12.89181426 -11.75390625 9.4140625 C-11.48216286 6.22560677 -10.93236852 5.2130059 -9.06640625 2.4140625 C-5.71693123 0.18107916 -3.93640362 -0.28276623 0 0 Z " fill="#091C32" transform="translate(635.06640625,256.5859375)"/>
<path d="M0 0 C1.99609375 0.3046875 1.99609375 0.3046875 4.4375 0.875 C5.24058594 1.05804687 6.04367187 1.24109375 6.87109375 1.4296875 C9 2 9 2 11 3 C10.50269348 7.97306516 9.44697666 11.63799813 7 16 C3.39651192 14.79883731 3.0941532 13.98158719 1.3125 10.75 C0.87550781 9.98171875 0.43851563 9.2134375 -0.01171875 8.421875 C-1.10518865 5.74222544 -1.26200877 3.86726577 -1 1 C-0.67 0.67 -0.34 0.34 0 0 Z " fill="#0A182C" transform="translate(789,596)"/>
<path d="M0 0 C0.33 0 0.66 0 1 0 C1.24939926 11.1952557 0.66940943 21.9252571 -1 33 C-3.36279739 29.45580391 -3.14707409 28.50248069 -2.75 24.375 C-2.64300781 23.23417969 -2.53601563 22.09335937 -2.42578125 20.91796875 C-1.66734273 13.93894271 -0.8594388 6.96729509 0 0 Z " fill="#DCDDDA" transform="translate(413,423)"/>
<path d="M0 0 C0.33 0 0.66 0 1 0 C1.58419631 4.6005459 2.09594951 9.17558038 2.25 13.8125 C2.28867187 14.87404297 2.28867187 14.87404297 2.328125 15.95703125 C2 18 2 18 -1 22 C-1 17.71 -1 13.42 -1 9 C-1.99 9.33 -2.98 9.66 -4 10 C-4.66 9.67 -5.32 9.34 -6 9 C-5.67 7.35 -5.34 5.7 -5 4 C-2.525 4.99 -2.525 4.99 0 6 C0 4.02 0 2.04 0 0 Z " fill="#E1DDD7" transform="translate(532,654)"/>
<path d="M0 0 C0.66 0.33 1.32 0.66 2 1 C-0.01593248 3.21297852 -2.03749885 5.42034377 -4.0625 7.625 C-4.62388672 8.24246094 -5.18527344 8.85992187 -5.76367188 9.49609375 C-9.60709337 13.66895137 -13.6296902 17.38127214 -18 21 C-18.66 20.67 -19.32 20.34 -20 20 C-13.4 13.4 -6.8 6.8 0 0 Z " fill="#F4F3ED" transform="translate(649,457)"/>
<path d="M0 0 C3.23948608 0.84905885 4.90715111 2.96987639 6.9375 5.5078125 C5.9475 6.0028125 5.9475 6.0028125 4.9375 6.5078125 C4.380625 5.8271875 3.82375 5.1465625 3.25 4.4453125 C1.10472305 2.21479333 1.10472305 2.21479333 -1.6875 2.5703125 C-4.38539761 3.37436796 -4.38539761 3.37436796 -6.0625 6.5078125 C-7.0525 6.5078125 -8.0425 6.5078125 -9.0625 6.5078125 C-9.3925 8.1578125 -9.7225 9.8078125 -10.0625 11.5078125 C-10.3925 11.5078125 -10.7225 11.5078125 -11.0625 11.5078125 C-11.52011159 7.5723528 -11.35992742 5.93536441 -9.0625 2.6328125 C-5.71553863 0.26204819 -4.00372258 -0.22748424 0 0 Z " fill="#091122" transform="translate(635.0625,256.4921875)"/>
<path d="M0 0 C3.68069887 1.53643852 5.98775204 3.78150945 8.75 6.625 C9.54921875 7.44226563 10.3484375 8.25953125 11.171875 9.1015625 C12.07679688 10.04128906 12.07679688 10.04128906 13 11 C12.34 11.66 11.68 12.32 11 13 C9.16052663 11.21427748 7.32842259 9.42197551 5.5 7.625 C4.71302734 6.86316406 4.71302734 6.86316406 3.91015625 6.0859375 C2.56846819 4.76167396 1.28004185 3.38394135 0 2 C0 1.34 0 0.68 0 0 Z " fill="#1C2536" transform="translate(606,647)"/>
<path d="M0 0 C0.66 0 1.32 0 2 0 C2.33 1.32 2.66 2.64 3 4 C3.66 4 4.32 4 5 4 C5.12375 4.804375 5.2475 5.60875 5.375 6.4375 C5.684375 7.7059375 5.684375 7.7059375 6 9 C6.66 9.33 7.32 9.66 8 10 C7.67 10.66 7.34 11.32 7 12 C6.34 12 5.68 12 5 12 C4.16180842 10.37750059 3.3295884 8.75191503 2.5 7.125 C2.0359375 6.22007812 1.571875 5.31515625 1.09375 4.3828125 C0 2 0 2 0 0 Z " fill="#DFDFDC" transform="translate(264,674)"/>
<path d="M0 0 C1.21236328 0.02707031 1.21236328 0.02707031 2.44921875 0.0546875 C3.37154297 0.08949219 3.37154297 0.08949219 4.3125 0.125 C4.6425 0.785 4.9725 1.445 5.3125 2.125 C0.68328475 3.1411692 -3.03212607 2.96296731 -7.6875 2.125 C-4.48369983 -0.01086678 -3.66810033 -0.10632175 0 0 Z " fill="#DEDDD9" transform="translate(464.6875,802.875)"/>
<path d="M0 0 C4.2742558 1.5830577 6.26531794 4.50568404 9 8 C6 8 6 8 4.39453125 6.7578125 C3.87246094 6.21898437 3.35039062 5.68015625 2.8125 5.125 C2.28269531 4.59132813 1.75289063 4.05765625 1.20703125 3.5078125 C0 2 0 2 0 0 Z " fill="#1D2636" transform="translate(303,734)"/>
<path d="M0 0 C0.33 0.66 0.66 1.32 1 2 C2.98 2 4.96 2 7 2 C6.67 2.66 6.34 3.32 6 4 C3.35139573 4.59355614 0.70802678 4.74209269 -2 5 C-1.34 3.35 -0.68 1.7 0 0 Z " fill="#060E20" transform="translate(303,716)"/>
<path d="M0 0 C0.99 0 1.98 0 3 0 C3.30466674 5.28089024 3.317124 6.577168 0 11 C0 7.37 0 3.74 0 0 Z " fill="#E3E2DB" transform="translate(807,587)"/>
<path d="M0 0 C0.66 0.33 1.32 0.66 2 1 C1.34 1.66 0.68 2.32 0 3 C0.33693943 6.36939433 1.88819408 8.42910583 4 11 C3.01 11 2.02 11 1 11 C-0.98 7.535 -0.98 7.535 -3 4 C-2.01 2.68 -1.02 1.36 0 0 Z " fill="#F2F1EC" transform="translate(719,540)"/>
<path d="M0 0 C4 0 4 0 6.25 1.875 C8 4 8 4 8 6 C4.08597051 4.73058503 2.20927127 3.48832306 0 0 Z " fill="#EAE9E7" transform="translate(542,712)"/>
<path d="M0 0 C0.33 0 0.66 0 1 0 C1.125 2.875 1.125 2.875 1 6 C0.34 6.66 -0.32 7.32 -1 8 C-1.99 7.67 -2.98 7.34 -4 7 C-2.68 4.69 -1.36 2.38 0 0 Z " fill="#172235" transform="translate(637,432)"/>
<path d="M0 0 C7.75 -0.125 7.75 -0.125 10 1 C10 1.99 10 2.98 10 4 C8.68 3.67 7.36 3.34 6 3 C6 2.34 6 1.68 6 1 C4.02 1 2.04 1 0 1 C0 0.67 0 0.34 0 0 Z " fill="#F1EFE9" transform="translate(634,233)"/>
<path d="M0 0 C0.33 0 0.66 0 1 0 C1.33730842 1.43657245 1.66969591 2.87430093 2 4.3125 C2.185625 5.11300781 2.37125 5.91351562 2.5625 6.73828125 C3 9 3 9 3 12 C0.89366282 10.29171079 0.06198392 9.47851584 -0.29296875 6.73828125 C-0.25816406 5.93777344 -0.22335937 5.13726563 -0.1875 4.3125 C-0.16042969 3.50425781 -0.13335938 2.69601562 -0.10546875 1.86328125 C-0.07066406 1.24839844 -0.03585937 0.63351562 0 0 Z " fill="#263042" transform="translate(559,660)"/>
<path d="M0 0 C0.66 0.33 1.32 0.66 2 1 C0.625 2.5 0.625 2.5 -1 4 C-1.66 4 -2.32 4 -3 4 C-3.66 5.32 -4.32 6.64 -5 8 C-5.33 7.01 -5.66 6.02 -6 5 C-4.02 3.35 -2.04 1.7 0 0 Z " fill="#F2F1EB" transform="translate(618,486)"/>
</svg>
