<?xml version="1.0" encoding="UTF-8"?>
<svg version="1.1" xmlns="http://www.w3.org/2000/svg" width="500" height="500">
<path d="M0 0 C7.96575683 6.36972974 12.14659066 13.99160446 16.40234375 23.05859375 C16.98919777 24.282737 17.57640059 25.50671313 18.1640625 26.73046875 C18.59074219 27.6328125 19.01742187 28.53515625 19.45703125 29.46484375 C24.36844921 35.98343052 32.93344564 37.2824841 40.4140625 39.23046875 C63.23310408 45.25865947 63.23310408 45.25865947 70.1640625 50.73046875 C71.57175705 53.54585786 71.39716468 55.60460677 71.1640625 58.73046875 C69.95703125 61.30078125 69.95703125 61.30078125 68.3515625 63.85546875 C66.01810034 67.85879777 64.61799669 71.32283598 63.6640625 75.85546875 C61.74170316 84.53419043 56.81134207 90.96949312 50.1640625 96.73046875 C49.1740625 96.73046875 48.1840625 96.73046875 47.1640625 96.73046875 C47.1640625 97.39046875 47.1640625 98.05046875 47.1640625 98.73046875 C45.58108224 99.21080055 43.99766272 99.68968487 42.4140625 100.16796875 C41.53234375 100.43480469 40.650625 100.70164062 39.7421875 100.9765625 C38.89140625 101.22535156 38.040625 101.47414063 37.1640625 101.73046875 C36.60348145 101.9104541 36.04290039 102.09043945 35.46533203 102.27587891 C32.23131874 102.91472176 29.04543183 102.81277687 25.765625 102.7578125 C24.30208571 102.74516422 22.83854392 102.73280341 21.375 102.72070312 C19.08195061 102.69592799 16.78903365 102.66796833 14.49609375 102.63452148 C12.27342936 102.60415591 10.05093176 102.58649472 7.828125 102.5703125 C7.14980621 102.55685287 6.47148743 102.54339325 5.77261353 102.52952576 C-1.4974906 102.49157875 -7.6527461 104.61002785 -12.8359375 109.73046875 C-17.28749768 116.10102995 -17.83294557 123.17737728 -16.8359375 130.73046875 C-14.73128032 138.09114145 -10.71997238 143.48092155 -4.7109375 148.16796875 C-3.7621875 148.68359375 -2.8134375 149.19921875 -1.8359375 149.73046875 C-0.8459375 149.40046875 0.1440625 149.07046875 1.1640625 148.73046875 C1.1640625 148.07046875 1.1640625 147.41046875 1.1640625 146.73046875 C1.8240625 146.73046875 2.4840625 146.73046875 3.1640625 146.73046875 C3.1640625 146.07046875 3.1640625 145.41046875 3.1640625 144.73046875 C3.8240625 144.73046875 4.4840625 144.73046875 5.1640625 144.73046875 C5.1640625 144.07046875 5.1640625 143.41046875 5.1640625 142.73046875 C5.8240625 142.73046875 6.4840625 142.73046875 7.1640625 142.73046875 C7.1640625 142.07046875 7.1640625 141.41046875 7.1640625 140.73046875 C7.8240625 140.73046875 8.4840625 140.73046875 9.1640625 140.73046875 C9.1640625 140.07046875 9.1640625 139.41046875 9.1640625 138.73046875 C12.63234102 135.50114643 16.4279355 132.64326406 20.1640625 129.73046875 C21.1128125 128.99054688 22.0615625 128.250625 23.0390625 127.48828125 C29.16502164 122.81057876 35.44336527 118.45426085 41.91308594 114.26782227 C44.92854175 112.30060021 47.75410571 110.28516427 50.484375 107.93359375 C53.1640625 105.73046875 53.1640625 105.73046875 55.1640625 105.73046875 C55.1640625 105.07046875 55.1640625 104.41046875 55.1640625 103.73046875 C55.8240625 103.73046875 56.4840625 103.73046875 57.1640625 103.73046875 C57.1640625 103.07046875 57.1640625 102.41046875 57.1640625 101.73046875 C57.8240625 101.73046875 58.4840625 101.73046875 59.1640625 101.73046875 C59.1640625 101.07046875 59.1640625 100.41046875 59.1640625 99.73046875 C59.8240625 99.73046875 60.4840625 99.73046875 61.1640625 99.73046875 C61.1640625 99.07046875 61.1640625 98.41046875 61.1640625 97.73046875 C61.8240625 97.73046875 62.4840625 97.73046875 63.1640625 97.73046875 C63.1640625 97.07046875 63.1640625 96.41046875 63.1640625 95.73046875 C63.8240625 95.73046875 64.4840625 95.73046875 65.1640625 95.73046875 C65.380625 95.199375 65.5971875 94.66828125 65.8203125 94.12109375 C67.66246502 90.8437759 70.12544019 88.22244324 72.6640625 85.48046875 C73.16292969 84.92617187 73.66179687 84.371875 74.17578125 83.80078125 C75.4608979 82.40196795 76.80840018 81.06102621 78.1640625 79.73046875 C78.8240625 79.73046875 79.4840625 79.73046875 80.1640625 79.73046875 C81.1540625 77.75046875 81.1540625 77.75046875 82.1640625 75.73046875 C82.8240625 75.73046875 83.4840625 75.73046875 84.1640625 75.73046875 C84.1640625 75.07046875 84.1640625 74.41046875 84.1640625 73.73046875 C86.17578125 72.0390625 86.17578125 72.0390625 88.8515625 70.16796875 C90.15673828 69.23791016 90.15673828 69.23791016 91.48828125 68.2890625 C94.16129059 66.73208334 96.15316842 66.25008825 99.1640625 65.73046875 C99.78323108 92.89450568 99.78323108 92.89450568 96.1640625 103.73046875 C96.91300781 103.86453125 97.66195312 103.99859375 98.43359375 104.13671875 C108.45244419 106.3153529 116.58564759 113.8598112 122.5390625 121.91796875 C125.56531067 126.73629685 126.69106612 131.93906345 128.0859375 137.40625 C129.38751972 141.41946186 131.23211089 144.13468227 133.9921875 147.27734375 C135.1640625 148.73046875 135.1640625 148.73046875 135.1640625 150.73046875 C136.1540625 151.06046875 137.1440625 151.39046875 138.1640625 151.73046875 C138.1640625 152.39046875 138.1640625 153.05046875 138.1640625 153.73046875 C138.7828125 154.01921875 139.4015625 154.30796875 140.0390625 154.60546875 C142.1640625 155.73046875 142.1640625 155.73046875 144.1640625 157.73046875 C145.68936956 163.91320193 144.38427614 169.00668709 141.34643555 174.41040039 C129.85905992 193.30776187 129.85905992 193.30776187 120.1640625 195.73046875 C114.43644777 196.26235868 108.69523561 196.21480257 102.94726562 196.2578125 C101.78001953 196.27972656 100.61277344 196.30164063 99.41015625 196.32421875 C98.35497803 196.33130859 97.2997998 196.33839844 96.21264648 196.34570312 C90.76650455 197.03306756 86.62099941 199.50961052 83.1640625 203.73046875 C80.14354883 210.22247556 78.73519828 217.39845806 77.1640625 224.35546875 C75.01836742 233.8113394 72.4320887 242.14285809 66.1640625 249.73046875 C65.5040625 249.73046875 64.8440625 249.73046875 64.1640625 249.73046875 C64.1640625 250.39046875 64.1640625 251.05046875 64.1640625 251.73046875 C63.5040625 251.73046875 62.8440625 251.73046875 62.1640625 251.73046875 C62.1640625 252.39046875 62.1640625 253.05046875 62.1640625 253.73046875 C61.5040625 253.73046875 60.8440625 253.73046875 60.1640625 253.73046875 C60.1640625 254.39046875 60.1640625 255.05046875 60.1640625 255.73046875 C27.77366616 274.41429075 -14.47195186 271.88547586 -49.8359375 262.73046875 C-60.99377173 259.58940613 -72.06856696 256.10701634 -81.8359375 249.73046875 C-82.91230469 249.02792969 -83.98867187 248.32539063 -85.09765625 247.6015625 C-98.03576459 238.96570265 -98.03576459 238.96570265 -102.8359375 233.73046875 C-102.8359375 233.07046875 -102.8359375 232.41046875 -102.8359375 231.73046875 C-103.4959375 231.73046875 -104.1559375 231.73046875 -104.8359375 231.73046875 C-104.8359375 231.07046875 -104.8359375 230.41046875 -104.8359375 229.73046875 C-105.4959375 229.73046875 -106.1559375 229.73046875 -106.8359375 229.73046875 C-108.95259442 227.42889462 -110.66967243 224.78957623 -112.4609375 222.23046875 C-112.99783203 221.46379883 -113.53472656 220.69712891 -114.08789062 219.90722656 C-131.23515077 194.88454813 -136.91224088 165.38857629 -131.65527344 135.41601562 C-128.99458652 122.30226392 -124.69206013 110.2751426 -117.8359375 98.73046875 C-114.23735796 98.73046875 -112.74142632 99.6887739 -109.8359375 101.73046875 C-109.8359375 102.39046875 -109.8359375 103.05046875 -109.8359375 103.73046875 C-107.8559375 104.39046875 -105.8759375 105.05046875 -103.8359375 105.73046875 C-103.8359375 106.39046875 -103.8359375 107.05046875 -103.8359375 107.73046875 C-103.1553125 107.83359375 -102.4746875 107.93671875 -101.7734375 108.04296875 C-98.8359375 108.73046875 -98.8359375 108.73046875 -95.5859375 110.16796875 C-87.2321263 113.84869766 -77.37420694 115.54380838 -68.5859375 112.48046875 C-62.61081786 109.86635391 -58.4029709 107.31389836 -55.77661133 101.20141602 C-52.23579743 91.90046158 -51.31774267 82.86889234 -51.3984375 72.98046875 C-51.40311035 71.70510254 -51.4077832 70.42973633 -51.41259766 69.11572266 C-51.52646504 59.03845933 -52.45039631 49.09878858 -53.7109375 39.10546875 C-53.79779816 38.40925415 -53.88465881 37.71303955 -53.97415161 36.99572754 C-54.81058086 28.53960489 -54.81058086 28.53960489 -57.8359375 20.73046875 C-58.1659375 20.73046875 -58.4959375 20.73046875 -58.8359375 20.73046875 C-58.69296104 23.03387009 -58.5497013 25.33725322 -58.40625 27.640625 C-58.36154572 28.35992691 -58.31684143 29.07922882 -58.27078247 29.82032776 C-57.99246671 34.28106567 -57.7040741 38.74099475 -57.40716553 43.20053101 C-57.21512433 46.11903554 -57.0323743 49.03808596 -56.85107422 51.95727539 C-56.75774815 53.42951844 -56.66075008 54.90153337 -56.56005859 56.37329102 C-54.07030825 92.9612671 -54.07030825 92.9612671 -62.8359375 103.73046875 C-67.45335221 108.22308847 -71.68601896 109.65994819 -77.9765625 109.80078125 C-86.50706828 109.48135702 -93.22281912 107.50242286 -100.8359375 103.73046875 C-101.52171875 103.40175781 -102.2075 103.07304687 -102.9140625 102.734375 C-104.23323983 102.09019729 -105.53760955 101.41569739 -106.8359375 100.73046875 C-106.8359375 100.07046875 -106.8359375 99.41046875 -106.8359375 98.73046875 C-107.8259375 98.45203125 -107.8259375 98.45203125 -108.8359375 98.16796875 C-115.3660033 95.03897889 -120.55180199 89.48727584 -124.8359375 83.73046875 C-124.8359375 83.07046875 -124.8359375 82.41046875 -124.8359375 81.73046875 C-125.4959375 81.73046875 -126.1559375 81.73046875 -126.8359375 81.73046875 C-130.07821053 77.55583223 -132.56026351 73.3293779 -133.4609375 68.10546875 C-132.66989601 63.83384468 -131.00775912 60.46328716 -128.8359375 56.73046875 C-128.1759375 56.73046875 -127.5159375 56.73046875 -126.8359375 56.73046875 C-126.74054688 56.17101562 -126.64515625 55.6115625 -126.546875 55.03515625 C-124.98797511 49.98157969 -121.01676349 45.89181303 -117.8359375 41.73046875 C-117.39330566 41.14813477 -116.95067383 40.56580078 -116.49462891 39.96582031 C-111.72123975 33.70756318 -107.00788488 27.541467 -101.265625 22.12890625 C-99.59668411 20.55667508 -99.59668411 20.55667508 -97.5234375 17.79296875 C-96.9665625 17.11234375 -96.4096875 16.43171875 -95.8359375 15.73046875 C-95.1759375 15.73046875 -94.5159375 15.73046875 -93.8359375 15.73046875 C-93.8359375 15.07046875 -93.8359375 14.41046875 -93.8359375 13.73046875 C-70.3791351 -7.8787088 -28.3181754 -19.17869739 0 0 Z M-9.1484375 33.29296875 C-11.18840411 35.73325123 -11.18840411 35.73325123 -10.7734375 39.35546875 C-10.160853 42.98563799 -10.160853 42.98563799 -6.8359375 44.73046875 C-2.32743568 44.38601277 -2.32743568 44.38601277 1.1640625 41.73046875 C1.66414044 38.2726086 1.66414044 38.2726086 1.1640625 34.73046875 C-0.47043874 32.67101859 -0.47043874 32.67101859 -2.8359375 31.73046875 C-6.74869305 31.35723048 -6.74869305 31.35723048 -9.1484375 33.29296875 Z M99.1640625 137.73046875 C102.42693002 142.17597531 102.42693002 142.17597531 107.1640625 144.73046875 C108.4840625 144.73046875 109.8040625 144.73046875 111.1640625 144.73046875 C111.195 142.81234375 111.195 142.81234375 111.2265625 140.85546875 C111.23816406 140.13617188 111.24976563 139.416875 111.26171875 138.67578125 C111.29055492 136.64861471 111.29055492 136.64861471 110.1640625 134.73046875 C105.71536035 134.33793621 103.02162757 135.57740918 99.1640625 137.73046875 Z M134.1640625 164.73046875 C134.4940625 166.38046875 134.8240625 168.03046875 135.1640625 169.73046875 C135.8240625 169.73046875 136.4840625 169.73046875 137.1640625 169.73046875 C137.4940625 168.41046875 137.8240625 167.09046875 138.1640625 165.73046875 C136.8440625 165.40046875 135.5240625 165.07046875 134.1640625 164.73046875 Z M-105.8359375 153.73046875 C-104.54535148 157.90480438 -102.94595535 161.62509162 -100.8984375 165.48046875 C-94.31558986 178.64616404 -92.30740076 192.30602244 -96.5234375 206.66796875 C-98.59779733 212.51186417 -101.11292808 218.16169128 -103.8359375 223.73046875 C-92.28698124 220.51190717 -84.0721115 214.58911884 -76.125 205.671875 C-73.8359375 203.73046875 -73.8359375 203.73046875 -71.55078125 203.09765625 C-67.26644726 204.09630676 -64.24608478 206.67376212 -60.7734375 209.29296875 C-59.24853422 210.40309964 -57.72118046 211.50987223 -56.19140625 212.61328125 C-55.44681152 213.15114258 -54.7022168 213.68900391 -53.93505859 214.24316406 C-45.45668431 220.25040483 -36.61253268 224.31181418 -26.8359375 227.73046875 C-26.03285156 228.02824219 -25.22976562 228.32601562 -24.40234375 228.6328125 C-7.06690319 234.84390618 10.85513493 234.14745135 27.76953125 226.87890625 C36.46012735 222.71082264 43.15686287 217.29313819 50.1640625 210.73046875 C52.47797309 208.70631441 54.81904114 206.71863904 57.1640625 204.73046875 C55.02194839 200.91311155 52.58732585 197.73503528 49.6640625 194.48046875 C48.890625 193.6090625 48.1171875 192.73765625 47.3203125 191.83984375 C45.26425206 189.52088843 45.26425206 189.52088843 42.1640625 188.73046875 C42.1640625 188.07046875 42.1640625 187.41046875 42.1640625 186.73046875 C40.5140625 186.07046875 38.8640625 185.41046875 37.1640625 184.73046875 C37.1640625 184.07046875 37.1640625 183.41046875 37.1640625 182.73046875 C33.01300086 179.78308486 28.57102326 177.2752074 24.1640625 174.73046875 C23.3184375 174.23675781 22.4728125 173.74304688 21.6015625 173.234375 C4.7841421 164.11546968 -16.48178712 162.83627588 -34.9609375 167.23046875 C-45.6533315 170.67254079 -56.0577505 175.94527212 -65.0390625 182.69921875 C-66.8359375 183.73046875 -66.8359375 183.73046875 -70.8359375 183.73046875 C-72.6171875 181.5 -72.6171875 181.5 -74.3359375 178.54296875 C-76.60471427 174.69120455 -78.85167377 171.07553486 -81.8359375 167.73046875 C-82.4959375 167.73046875 -83.1559375 167.73046875 -83.8359375 167.73046875 C-83.8359375 167.07046875 -83.8359375 166.41046875 -83.8359375 165.73046875 C-89.98832163 160.70457749 -97.77403296 154.7076693 -105.8359375 153.73046875 Z " fill="#E8E4DC" transform="translate(251.8359375,127.26953125)"/>
<path d="M0 0 C0.78375 0.639375 1.5675 1.27875 2.375 1.9375 C2.375 2.5975 2.375 3.2575 2.375 3.9375 C3.695 4.5975 5.015 5.2575 6.375 5.9375 C6.375 6.5975 6.375 7.2575 6.375 7.9375 C7.035 7.9375 7.695 7.9375 8.375 7.9375 C10.00368536 9.88022299 11.47876833 11.80857856 12.9375 13.875 C13.38295166 14.50543213 13.82840332 15.13586426 14.28735352 15.78540039 C22.30875746 27.41423126 28.055064 40.31079488 34.06689453 53.04736328 C40.38115346 66.31148575 47.37413542 79.26086071 55.16479492 91.7175293 C56.30999573 93.81825776 56.92326948 95.60016959 57.375 97.9375 C52.68999857 97.71192586 50.71949622 95.65799463 47.71875 92.375 C47.1928125 91.776875 46.666875 91.17875 46.125 90.5625 C45.58359375 89.97210938 45.0421875 89.38171875 44.484375 88.7734375 C40.52025463 84.37326389 40.52025463 84.37326389 39.375 80.9375 C37.89 80.4425 37.89 80.4425 36.375 79.9375 C36.375 79.2775 36.375 78.6175 36.375 77.9375 C35.85550781 77.70289063 35.33601563 77.46828125 34.80078125 77.2265625 C32.22277469 75.85660733 29.85490247 74.26556778 27.45166016 72.61206055 C19.38928698 67.06592299 11.06741224 62.40931901 2.375 57.9375 C-7.76256636 52.62309296 -15.8085308 47.78595114 -20.625 36.9375 C-21.51358327 33.85656063 -22.23186973 30.76785005 -22.9375 27.640625 C-24.07384528 23.17272195 -25.6005548 20.17377187 -29.6015625 17.73046875 C-33.40620869 15.8804432 -36.91627873 14.75910891 -41.125 14.3125 C-42.28 14.18875 -43.435 14.065 -44.625 13.9375 C-44.955 13.2775 -45.285 12.6175 -45.625 11.9375 C-34.06347292 -2.80153287 -17.44489162 -11.01131457 0 0 Z M-17.5 10.125 C-18.86950104 11.89844026 -18.86950104 11.89844026 -18.3125 14.125 C-18.085625 14.723125 -17.85875 15.32125 -17.625 15.9375 C-14.16 15.4425 -14.16 15.4425 -10.625 14.9375 C-10.625 13.2875 -10.625 11.6375 -10.625 9.9375 C-14.19326025 8.78621656 -14.19326025 8.78621656 -17.5 10.125 Z " fill="#E6E1DA" transform="translate(323.625,117.0625)"/>
<path d="M0 0 C3.68119922 4.25080741 6.27208886 8.83552065 8.9375 13.75 C9.35451172 14.51054687 9.77152344 15.27109375 10.20117188 16.0546875 C11.0417068 17.58765692 11.87945029 19.1221603 12.71435547 20.65820312 C13.60680601 22.28379857 14.51310761 23.90183612 15.43017578 25.51367188 C15.88763184 26.31869141 16.34508789 27.12371094 16.81640625 27.953125 C17.44397827 29.04608887 17.44397827 29.04608887 18.08422852 30.16113281 C19 32 19 32 19 34 C14.31499857 33.77442586 12.34449622 31.72049463 9.34375 28.4375 C8.8178125 27.839375 8.291875 27.24125 7.75 26.625 C7.20859375 26.03460938 6.6671875 25.44421875 6.109375 24.8359375 C2.14525463 20.43576389 2.14525463 20.43576389 1 17 C0.01 16.67 -0.98 16.34 -2 16 C-2 15.34 -2 14.68 -2 14 C-2.598125 13.731875 -3.19625 13.46375 -3.8125 13.1875 C-5.97224808 12.01506533 -7.35790256 10.80630718 -9 9 C-7.6875 7.5 -7.6875 7.5 -6 6 C-5.01 6 -4.02 6 -3 6 C-2.690625 5.38125 -2.38125 4.7625 -2.0625 4.125 C-1.375 2.75 -0.6875 1.375 0 0 Z " fill="#DAD7D3" transform="translate(362,181)"/>
<path d="M0 0 C0.99 0 1.98 0 3 0 C4.0386562 3.1159686 3.994633 5.55304964 3.88427734 8.80224609 C3.58689355 18.16680115 4.70719723 25.06079585 10 33 C10 33.99 10 34.98 10 36 C9.01 36 8.02 36 7 36 C7 35.34 7 34.68 7 34 C6.4225 33.773125 5.845 33.54625 5.25 33.3125 C0.11367052 30.31630781 -1.81779394 25.72893886 -3.4609375 20.2578125 C-5.18516001 13.03606896 -3.24654296 6.49308592 0 0 Z " fill="#C7C3C1" transform="translate(259,315)"/>
<path d="M0 0 C1.875 1 1.875 1 3 3 C3.36095911 5.80173027 3.22716238 8.13775402 3 11 C1 13 1 13 -2.375 13.375 C-6 13 -6 13 -8.4375 11.3125 C-10 9 -10 9 -10.5 6.5 C-9.33037707 0.65188536 -5.56964553 -0.82952167 0 0 Z " fill="#E2DED9" transform="translate(282,317)"/>
<path d="M0 0 C2.31 0.66 4.62 1.32 7 2 C6.67 2.66 6.34 3.32 6 4 C6.66 3.67 7.32 3.34 8 3 C8.33 2.01 8.66 1.02 9 0 C12.50297874 4.02193856 18 10.39433144 18 16 C14.26886017 15.82726204 12.44302162 14.72359949 9.921875 12.12890625 C8.85313665 10.95038413 7.7961029 9.76115958 6.75 8.5625 C6.20859375 7.96373047 5.6671875 7.36496094 5.109375 6.74804688 C1.1821296 2.36425919 1.1821296 2.36425919 0 0 Z " fill="#B8B7B9" transform="translate(363,199)"/>
<path d="M0 0 C0.99 0 1.98 0 3 0 C3.94148531 2.82445592 4.07311695 4.14171618 3.87890625 7.01171875 C3.83056641 7.76904297 3.78222656 8.52636719 3.73242188 9.30664062 C3.67634766 10.09232422 3.62027344 10.87800781 3.5625 11.6875 C3.51029297 12.48478516 3.45808594 13.28207031 3.40429688 14.10351562 C3.27480978 16.06936522 3.13809959 18.03473665 3 20 C0.41073669 17.41073669 0.62601957 15.97294721 0.375 12.375 C0.30023438 11.37210937 0.22546875 10.36921875 0.1484375 9.3359375 C0.09945313 8.56507813 0.05046875 7.79421875 0 7 C-1.99616554 8.99616554 -1.40983427 12.81701963 -1.5625 15.5625 C-1.60568359 16.27341797 -1.64886719 16.98433594 -1.69335938 17.71679688 C-1.79971777 19.47761912 -1.90038846 21.2387832 -2 23 C-2.33 23 -2.66 23 -3 23 C-5.01822559 14.67481946 -3.78687 7.57374001 0 0 Z " fill="#8B8A91" transform="translate(259,315)"/>
<path d="M0 0 C0.66 1.32 1.32 2.64 2 4 C1.505 4.391875 1.01 4.78375 0.5 5.1875 C-1.45593143 7.55091715 -1.24207973 9.01435003 -1 12 C-4.67410785 13.17571451 -8.16929183 13.07366746 -12 13 C-12 12.34 -12 11.68 -12 11 C-11.34 11 -10.68 11 -10 11 C-10 10.34 -10 9.68 -10 9 C-9.34 9 -8.68 9 -8 9 C-8 8.34 -8 7.68 -8 7 C-7.34 7 -6.68 7 -6 7 C-6 6.34 -6 5.68 -6 5 C-5.34 5 -4.68 5 -4 5 C-4 4.34 -4 3.68 -4 3 C-3.34 3 -2.68 3 -2 3 C-2 2.34 -2 1.68 -2 1 C-1.34 0.67 -0.68 0.34 0 0 Z " fill="#CDCBC7" transform="translate(263,265)"/>
<path d="M0 0 C3.09592835 3.5087188 4.74194623 6.49197399 6 11 C4.68 10.67 3.36 10.34 2 10 C2 9.34 2 8.68 2 8 C0.05000871 8.19471111 0.05000871 8.19471111 -2 9 C-3.28436734 10.9837767 -3.28436734 10.9837767 -4 13 C-5.65 12.01 -7.3 11.02 -9 10 C-7.6875 8 -7.6875 8 -6 6 C-5.01 6 -4.02 6 -3 6 C-2.690625 5.38125 -2.38125 4.7625 -2.0625 4.125 C-1.375 2.75 -0.6875 1.375 0 0 Z " fill="#D1CBCA" transform="translate(362,181)"/>
<path d="M0 0 C1.09699219 -0.00257812 2.19398438 -0.00515625 3.32421875 -0.0078125 C4.46503906 -0.00007813 5.60585937 0.00765625 6.78125 0.015625 C7.92207031 0.00789063 9.06289062 0.00015625 10.23828125 -0.0078125 C11.33527344 -0.00523438 12.43226563 -0.00265625 13.5625 0 C14.56345703 0.00225586 15.56441406 0.00451172 16.59570312 0.00683594 C19.31101004 0.26849279 20.96013436 0.87599156 23.28125 2.265625 C17.55898019 3.24658554 12.01795346 3.41645664 6.21875 3.390625 C5.34669922 3.39449219 4.47464844 3.39835937 3.57617188 3.40234375 C-0.96944126 3.39546167 -5.24619414 3.19098139 -9.71875 2.265625 C-6.39146873 0.27360821 -3.85103666 0.00867909 0 0 Z " fill="#9E9EA3" transform="translate(208.71875,118.734375)"/>
<path d="M0 0 C1.0209375 0.2165625 1.0209375 0.2165625 2.0625 0.4375 C0.0825 1.4275 0.0825 1.4275 -1.9375 2.4375 C-1.9375 3.4275 -1.9375 4.4175 -1.9375 5.4375 C-2.72125 5.664375 -3.505 5.89125 -4.3125 6.125 C-7.62512108 7.78131054 -7.67764357 9.07788286 -8.9375 12.4375 C-10.875 13.5625 -10.875 13.5625 -12.9375 14.4375 C-14.64671589 15.9787312 -14.64671589 15.9787312 -15.9375 17.4375 C-17.2575 16.7775 -18.5775 16.1175 -19.9375 15.4375 C-19.29683594 14.94121094 -18.65617188 14.44492187 -17.99609375 13.93359375 C-13.7813488 10.62335442 -9.76750149 7.37817086 -6.125 3.4375 C-3.3068981 0.49251674 -3.3068981 0.49251674 0 0 Z " fill="#C7C6C7" transform="translate(180.9375,329.5625)"/>
<path d="M0 0 C0.33 0 0.66 0 1 0 C1.06058594 0.81984375 1.12117188 1.6396875 1.18359375 2.484375 C1.26738281 3.56203125 1.35117187 4.6396875 1.4375 5.75 C1.55931641 7.35101563 1.55931641 7.35101563 1.68359375 8.984375 C1.89966824 11.90597408 1.89966824 11.90597408 2.66015625 14.265625 C2.77230469 14.83796875 2.88445312 15.4103125 3 16 C2.34 16.66 1.68 17.32 1 18 C0.01 18 -0.98 18 -2 18 C-2.05382106 15.37472811 -2.09358313 12.75055287 -2.125 10.125 C-2.14175781 9.37863281 -2.15851563 8.63226563 -2.17578125 7.86328125 C-2.1933959 5.90805539 -2.10320189 3.95257979 -2 2 C-1.34 1.34 -0.68 0.68 0 0 Z " fill="#EFE8E4" transform="translate(259,321)"/>
<path d="M0 0 C0.66 0.33 1.32 0.66 2 1 C2.89778814 9.74512153 1.15617521 14.92560485 -4 22 C-4.93423645 18.98968256 -5.04449911 18.13349732 -4 15 C-3.34 15 -2.68 15 -2 15 C-2.33 14.34 -2.66 13.68 -3 13 C-4.98 13.99 -4.98 13.99 -7 15 C-7 14.34 -7 13.68 -7 13 C-6.34 13 -5.68 13 -5 13 C-5.33 11.35 -5.66 9.7 -6 8 C-3.03 8.495 -3.03 8.495 0 9 C0 6.03 0 3.06 0 0 Z " fill="#A9ABAB" transform="translate(394,284)"/>
<path d="M0 0 C0.66 0.33 1.32 0.66 2 1 C1.01 3.31 0.02 5.62 -1 8 C-2.32 8 -3.64 8 -5 8 C-4.34 8.66 -3.68 9.32 -3 10 C-3.639375 10.28875 -4.27875 10.5775 -4.9375 10.875 C-7.15206079 11.82823451 -7.15206079 11.82823451 -8 14 C-10.5625 14.625 -10.5625 14.625 -13 15 C-10.61746972 10.49966502 -7.72793097 7.41066025 -4 4 C-3.34 4 -2.68 4 -2 4 C-1.34 2.68 -0.68 1.36 0 0 Z " fill="#A8ACAF" transform="translate(334,203)"/>
<path d="M0 0 C0.66 0.33 1.32 0.66 2 1 C0.89718873 2.27200971 -0.20730769 3.54255853 -1.3125 4.8125 C-1.92738281 5.52019531 -2.54226563 6.22789063 -3.17578125 6.95703125 C-4.73334335 8.70136739 -6.32658875 10.36778041 -8 12 C-6.68 12.66 -5.36 13.32 -4 14 C-6.31 14 -8.62 14 -11 14 C-11.33 13.34 -11.66 12.68 -12 12 C-8.27653164 7.57905197 -4.70478962 3.42166518 0 0 Z " fill="#A6A8AF" transform="translate(290,117)"/>
<path d="M0 0 C0.66 0 1.32 0 2 0 C2 0.66 2 1.32 2 2 C2.9075 1.79375 3.815 1.5875 4.75 1.375 C8.11027897 0.9872755 9.24075815 1.19588033 12 3 C11.67 4.98 11.34 6.96 11 9 C7.00584176 7.63057432 4.11667166 5.85694902 1 3 C0.67 2.01 0.34 1.02 0 0 Z " fill="#C6C4C1" transform="translate(308,161)"/>
<path d="M0 0 C0.33 0.66 0.66 1.32 1 2 C1.66 2 2.32 2 3 2 C3 7.94 3 13.88 3 20 C2.34 20 1.68 20 1 20 C0.67 20.99 0.34 21.98 0 23 C0 15.41 0 7.82 0 0 Z " fill="#C4C4C6" transform="translate(155,307)"/>
<path d="M0 0 C0.98097656 0.15339844 1.96195313 0.30679687 2.97265625 0.46484375 C7.11808732 1.05704819 11.25870695 1.32928282 15.4375 1.5625 C16.16904297 1.60568359 16.90058594 1.64886719 17.65429688 1.69335938 C19.43604715 1.79816821 21.21800402 1.89945521 23 2 C23 2.33 23 2.66 23 3 C22.40050537 3.02505615 21.80101074 3.0501123 21.18334961 3.07592773 C18.43456676 3.19285773 15.68604625 3.31513947 12.9375 3.4375 C11.99455078 3.47681641 11.05160156 3.51613281 10.08007812 3.55664062 C4.98884522 3.78725396 0.02935244 4.1699127 -5 5 C-5 4.34 -5 3.68 -5 3 C-4.360625 2.87625 -3.72125 2.7525 -3.0625 2.625 C-2.0415625 2.315625 -2.0415625 2.315625 -1 2 C-0.67 1.34 -0.34 0.68 0 0 Z " fill="#979699" transform="translate(223,290)"/>
<path d="M0 0 C1.65 0.33 3.3 0.66 5 1 C5 3.97 5 6.94 5 10 C4.01 10.33 3.02 10.66 2 11 C2 9.68 2 8.36 2 7 C-0.31 6.67 -2.62 6.34 -5 6 C-4.67 5.01 -4.34 4.02 -4 3 C-3.195625 3.185625 -2.39125 3.37125 -1.5625 3.5625 C-0.716875 3.706875 0.12875 3.85125 1 4 C1.33 3.67 1.66 3.34 2 3 C1.34 2.67 0.68 2.34 0 2 C0 1.34 0 0.68 0 0 Z " fill="#EEEAE4" transform="translate(390,285)"/>
<path d="M0 0 C0.66 0.33 1.32 0.66 2 1 C0.33333333 2.66666667 -1.33333333 4.33333333 -3 6 C-3.86625 6.928125 -4.7325 7.85625 -5.625 8.8125 C-8 11 -8 11 -11 11 C-11 10.01 -11 9.02 -11 8 C-8.59375 5.95703125 -8.59375 5.95703125 -5.5 3.8125 C-3.96859375 2.73935547 -3.96859375 2.73935547 -2.40625 1.64453125 C-1.6121875 1.10183594 -0.818125 0.55914062 0 0 Z " fill="#B9BABB" transform="translate(173,130)"/>
<path d="M0 0 C3.96996957 1.32332319 5.76036395 4.0089399 8.14453125 7.24609375 C9 9 9 9 8 12 C2.7704918 8.21311475 2.7704918 8.21311475 1 6 C1 4.68 1 3.36 1 2 C0.34 1.67 -0.32 1.34 -1 1 C-0.67 0.67 -0.34 0.34 0 0 Z " fill="#D7D5D5" transform="translate(331,127)"/>
<path d="M0 0 C4.75991185 2.4520758 8.57829431 5.90775833 12 10 C12 10.66 12 11.32 12 12 C9.525 11.01 9.525 11.01 7 10 C7 9.01 7 8.02 7 7 C5.02 7.33 3.04 7.66 1 8 C1.33 7.34 1.66 6.68 2 6 C2.66 6 3.32 6 4 6 C2.15811388 3.94729537 2.15811388 3.94729537 0 3 C0 2.01 0 1.02 0 0 Z " fill="#B5B5B6" transform="translate(361,237)"/>
<path d="M0 0 C2.35119399 3.52679099 2.21443452 5.02879485 2.125 9.1875 C2.10695313 10.27417969 2.08890625 11.36085938 2.0703125 12.48046875 C2.03550781 13.72763672 2.03550781 13.72763672 2 15 C1.67 15 1.34 15 1 15 C0.67 11.7 0.34 8.4 0 5 C-2.97 5.66 -5.94 6.32 -9 7 C-9 5.68 -9 4.36 -9 3 C-7.68 2.67 -6.36 2.34 -5 2 C-5 2.66 -5 3.32 -5 4 C-3.35 3.67 -1.7 3.34 0 3 C0 2.01 0 1.02 0 0 Z " fill="#98989B" transform="translate(362,257)"/>
<path d="M0 0 C1.94806149 2.92209224 3.45695045 5.84960716 5 9 C5.391875 9.78375 5.78375 10.5675 6.1875 11.375 C6.455625 11.91125 6.72375 12.4475 7 13 C5.68 13 4.36 13 3 13 C2.896875 12.38125 2.79375 11.7625 2.6875 11.125 C2.12474627 8.63473516 2.12474627 8.63473516 -1 7 C-0.67 6.34 -0.34 5.68 0 5 C-0.66 4.67 -1.32 4.34 -2 4 C-1.34 2.68 -0.68 1.36 0 0 Z " fill="#BBBEBE" transform="translate(234,258)"/>
<path d="M0 0 C2.53833449 1.26916725 2.89400901 2.41624809 4.125 4.9375 C4.47820312 5.64777344 4.83140625 6.35804688 5.1953125 7.08984375 C6 9 6 9 6 11 C2.31245243 10.50168276 0.39509338 9.89932357 -2 7 C-1.67 6.34 -1.34 5.68 -1 5 C-0.34 5.66 0.32 6.32 1 7 C0.67 4.69 0.34 2.38 0 0 Z " fill="#7F7E8E" transform="translate(375,204)"/>
<path d="M0 0 C2 1 2 1 2.8515625 3.06640625 C3.10679687 3.89011719 3.36203125 4.71382812 3.625 5.5625 C3.88539063 6.38878906 4.14578125 7.21507812 4.4140625 8.06640625 C4.60742188 8.70449219 4.80078125 9.34257812 5 10 C4.21625 9.79375 3.4325 9.5875 2.625 9.375 C1.75875 9.25125 0.8925 9.1275 0 9 C-0.66 9.66 -1.32 10.32 -2 11 C-1.67 8.69 -1.34 6.38 -1 4 C-0.34 4 0.32 4 1 4 C0.67 2.68 0.34 1.36 0 0 Z " fill="#BFBEBB" transform="translate(357,171)"/>
<path d="M0 0 C0 0.99 0 1.98 0 3 C-1.96875 4.82421875 -1.96875 4.82421875 -4.5 6.6875 C-5.3353125 7.31011719 -6.170625 7.93273437 -7.03125 8.57421875 C-7.6809375 9.04472656 -8.330625 9.51523438 -9 10 C-9.66 9.67 -10.32 9.34 -11 9 C-4.25 0 -4.25 0 0 0 Z " fill="#C4C3C7" transform="translate(307,233)"/>
<path d="M0 0 C2.31 0.33 4.62 0.66 7 1 C7.66 2.98 8.32 4.96 9 7 C4.68381834 7 3.07210341 4.86729652 0 2 C0 1.34 0 0.68 0 0 Z " fill="#BEBDC0" transform="translate(294,314)"/>
<path d="M0 0 C1.75 2.25 1.75 2.25 1.75 5.25 C0.76 5.25 -0.23 5.25 -1.25 5.25 C-1.25 4.59 -1.25 3.93 -1.25 3.25 C-2.2090625 2.816875 -2.2090625 2.816875 -3.1875 2.375 C-5.25 1.25 -5.25 1.25 -6.25 -0.75 C-3.2663262 -2.02871734 -2.64201386 -2.05489967 0 0 Z " fill="#AAB0B5" transform="translate(267.25,345.75)"/>
<path d="M0 0 C-2.62198774 2.15377564 -4.64404172 3.40072174 -8 4 C-8.33 2.35 -8.66 0.7 -9 -1 C-5.79937313 -2.60031344 -3.27728194 -1.03173691 0 0 Z " fill="#BEC0BB" transform="translate(205,299)"/>
<path d="M0 0 C0.78375 0.04125 1.5675 0.0825 2.375 0.125 C0.395 1.115 0.395 1.115 -1.625 2.125 C-1.625 3.115 -1.625 4.105 -1.625 5.125 C-2.3675 5.41375 -3.11 5.7025 -3.875 6 C-6.19400199 6.94868263 -8.39432676 7.99059779 -10.625 9.125 C-9.66770084 7.99911986 -8.70912105 6.8743285 -7.75 5.75 C-7.21632812 5.12351562 -6.68265625 4.49703125 -6.1328125 3.8515625 C-2.88938849 0.13758993 -2.88938849 0.13758993 0 0 Z " fill="#8C9197" transform="translate(180.625,329.875)"/>
<path d="M0 0 C2.45657845 3.68486768 2.07631341 5.65013547 2 10 C2.42854995 12.31036915 2.42854995 12.31036915 3 14 C-0.0390862 11.09304798 -0.96910803 9.86497512 -1.125 5.5 C-1 2 -1 2 0 0 Z " fill="#82838A" transform="translate(120,190)"/>
<path d="M0 0 C1.65 1.32 3.3 2.64 5 4 C4.071875 4.12375 4.071875 4.12375 3.125 4.25 C0.81562433 4.81258459 0.81562433 4.81258459 -0.25 7.0625 C-0.4975 7.701875 -0.745 8.34125 -1 9 C-1.66 9 -2.32 9 -3 9 C-1.125 2.25 -1.125 2.25 0 0 Z " fill="#C0BDB9" transform="translate(188,334)"/>
<path d="M0 0 C0.66 0.33 1.32 0.66 2 1 C2.1953125 7.0546875 2.1953125 7.0546875 2 9 C0 11 0 11 -3.625 11.125 C-4.73875 11.08375 -5.8525 11.0425 -7 11 C-7 10.67 -7 10.34 -7 10 C-5.35 9.67 -3.7 9.34 -2 9 C-2 8.34 -2 7.68 -2 7 C-1.01 7 -0.02 7 1 7 C0.67 4.69 0.34 2.38 0 0 Z " fill="#9D9EA7" transform="translate(283,319)"/>
<path d="M0 0 C1.32 0.66 2.64 1.32 4 2 C3.01 2.33 2.02 2.66 1 3 C2.32 4.32 3.64 5.64 5 7 C1.42424104 7 -0.05295935 5.91159393 -3 4 C-2.01 2.68 -1.02 1.36 0 0 Z " fill="#B8B5B2" transform="translate(167,369)"/>
<path d="M0 0 C1.32 0 2.64 0 4 0 C4 0.66 4 1.32 4 2 C4.99 2 5.98 2 7 2 C7 3.65 7 5.3 7 7 C6.34 7 5.68 7 5 7 C5 6.34 5 5.68 5 5 C4.34 5 3.68 5 3 5 C3 4.34 3 3.68 3 3 C2.34 3 1.68 3 1 3 C0.67 2.01 0.34 1.02 0 0 Z " fill="#ACABAF" transform="translate(144,354)"/>
<path d="M0 0 C1.65 0.99 3.3 1.98 5 3 C1.93882432 5.62386487 1.26826873 6 -3 6 C-1.125 1.125 -1.125 1.125 0 0 Z " fill="#ACACAD" transform="translate(135,225)"/>
<path d="M0 0 C2.96175123 0.61277612 4.38058783 1.25372522 7 3 C6.67 4.32 6.34 5.64 6 7 C5.34 7 4.68 7 4 7 C2 4 2 4 2 1 C1.34 0.67 0.68 0.34 0 0 Z " fill="#F2ECE4" transform="translate(140,347)"/>
<path d="M0 0 C1.65 0.99 3.3 1.98 5 3 C3.3545622 4.68762851 1.68711423 6.3540349 0 8 C-0.33 8 -0.66 8 -1 8 C-0.67 5.36 -0.34 2.72 0 0 Z " fill="#BEBBBE" transform="translate(122,256)"/>
<path d="M0 0 C0.66 0.33 1.32 0.66 2 1 C-1.515625 5.6875 -1.515625 5.6875 -3 7 C-4.32 7 -5.64 7 -7 7 C-7 6.34 -7 5.68 -7 5 C-5.46875 3.7109375 -5.46875 3.7109375 -3.5 2.375 C-2.8503125 1.92898437 -2.200625 1.48296875 -1.53125 1.0234375 C-1.0259375 0.68570313 -0.520625 0.34796875 0 0 Z " fill="#A6A5A8" transform="translate(343,196)"/>
<path d="M0 0 C1.65 0.33 3.3 0.66 5 1 C0.375 5 0.375 5 -3 5 C-2.01 3.35 -1.02 1.7 0 0 Z " fill="#9B9B9D" transform="translate(307,381)"/>
<path d="M0 0 C0 0.99 0 1.98 0 3 C0.94726954 4.69719127 1.94228261 6.36935236 3 8 C2.01 8.33 1.02 8.66 0 9 C-0.33 8.01 -0.66 7.02 -1 6 C-2.49985609 4.33289654 -2.49985609 4.33289654 -4 3 C-2.68 2.01 -1.36 1.02 0 0 Z " fill="#CBC6C3" transform="translate(147,344)"/>
<path d="M0 0 C0.33 0.66 0.66 1.32 1 2 C0.34 2 -0.32 2 -1 2 C-1.2165625 2.928125 -1.2165625 2.928125 -1.4375 3.875 C-2 6 -2 6 -3 8 C-4.32 7.34 -5.64 6.68 -7 6 C-5.625 4.5 -5.625 4.5 -4 3 C-3.34 3 -2.68 3 -2 3 C-2 2.34 -2 1.68 -2 1 C-1.34 0.67 -0.68 0.34 0 0 Z " fill="#A0A5A5" transform="translate(160,140)"/>
<path d="M0 0 C2.31 1.98 4.62 3.96 7 6 C5 7 5 7 1.875 6.0625 C0.92625 5.711875 -0.0225 5.36125 -1 5 C-0.67 3.35 -0.34 1.7 0 0 Z " fill="#A5A6A9" transform="translate(252,128)"/>
<path d="M0 0 C0.33 0.99 0.66 1.98 1 3 C1.66 3 2.32 3 3 3 C2.67 7.62 2.34 12.24 2 17 C1.67 17 1.34 17 1 17 C0.67 11.39 0.34 5.78 0 0 Z " fill="#666A70" transform="translate(198,161)"/>
<path d="M0 0 C2.9719385 1.12451727 5.33440687 2.22293791 8 4 C7.67 4.66 7.34 5.32 7 6 C4.69 5.34 2.38 4.68 0 4 C0 2.68 0 1.36 0 0 Z " fill="#A6A5A5" transform="translate(318,115)"/>
<path d="M0 0 C5.19209404 -0.21192221 9.126739 0.4087311 14 2 C10.16907332 3.37913361 6.9324167 2.78648334 3 2 C2.01 1.34 1.02 0.68 0 0 Z " fill="#8B8C91" transform="translate(303,112)"/>
<path d="M0 0 C0.66 0.33 1.32 0.66 2 1 C1.67 1.66 1.34 2.32 1 3 C0.34 3 -0.32 3 -1 3 C-1.33 4.32 -1.66 5.64 -2 7 C-3.32 7.33 -4.64 7.66 -6 8 C-6 7.34 -6 6.68 -6 6 C-5.34 6 -4.68 6 -4 6 C-4 5.34 -4 4.68 -4 4 C-3.34 4 -2.68 4 -2 4 C-2 3.34 -2 2.68 -2 2 C-1.34 2 -0.68 2 0 2 C0 1.34 0 0.68 0 0 Z " fill="#B1B2B6" transform="translate(313,225)"/>
<path d="M0 0 C0.75 1.625 0.75 1.625 1 4 C-0.9375 7.25 -0.9375 7.25 -3 10 C-3.88672454 7.5171713 -4.14518218 6.37970723 -3.1875 3.875 C-2 2 -2 2 0 0 Z " fill="#A4A2A5" transform="translate(192,221)"/>
<path d="M0 0 C0 1.32 0 2.64 0 4 C-5.75 2.25 -5.75 2.25 -8 0 C-2.25 -1.125 -2.25 -1.125 0 0 Z " fill="#AAAAAC" transform="translate(341,178)"/>
<path d="M0 0 C2.475 0.99 2.475 0.99 5 2 C4.67 3.32 4.34 4.64 4 6 C1.69 5.01 -0.62 4.02 -3 3 C-2.01 2.01 -1.02 1.02 0 0 Z " fill="#BFBDC0" transform="translate(248,156)"/>
<path d="M0 0 C3 1 3 1 4.75 3.4375 C5.36875 4.7059375 5.36875 4.7059375 6 6 C5.67 6.66 5.34 7.32 5 8 C4.01 7.67 3.02 7.34 2 7 C0.8125 3.4375 0.8125 3.4375 0 0 Z " fill="#BABCBC" transform="translate(340,140)"/>
<path d="M0 0 C0.66 1.32 1.32 2.64 2 4 C0.35 4.66 -1.3 5.32 -3 6 C-3.33 5.01 -3.66 4.02 -4 3 C-3.34 3 -2.68 3 -2 3 C-2 2.34 -2 1.68 -2 1 C-1.34 0.67 -0.68 0.34 0 0 Z " fill="#BDBBB9" transform="translate(263,265)"/>
<path d="M0 0 C0.66 0.33 1.32 0.66 2 1 C1.67 2.32 1.34 3.64 1 5 C-0.65 4.67 -2.3 4.34 -4 4 C-2.68 2.68 -1.36 1.36 0 0 Z " fill="#B9B7B7" transform="translate(284,248)"/>
<path d="M0 0 C0.66 0.33 1.32 0.66 2 1 C1.01 3.31 0.02 5.62 -1 8 C-1.99 7.67 -2.98 7.34 -4 7 C-4 6.01 -4 5.02 -4 4 C-3.34 4 -2.68 4 -2 4 C-1.34 2.68 -0.68 1.36 0 0 Z " fill="#B1B1B9" transform="translate(334,203)"/>
<path d="M0 0 C0 0.66 0 1.32 0 2 C-0.99 2 -1.98 2 -3 2 C-3.33 2.99 -3.66 3.98 -4 5 C-4.99 5 -5.98 5 -7 5 C-7.33 4.01 -7.66 3.02 -8 2 C-4.91190305 0.23537317 -3.76687864 0 0 0 Z " fill="#ECE8E4" transform="translate(359,185)"/>
<path d="M0 0 C1.875 0.125 1.875 0.125 4 1 C5.25 4.0625 5.25 4.0625 6 7 C3.00675737 5.9024777 2.15389099 5.32317108 0.75 2.375 C0.5025 1.59125 0.255 0.8075 0 0 Z " fill="#D2D3D5" transform="translate(343,148)"/>
<path d="M0 0 C4 4.5 4 4.5 4 9 C1.47740939 7.02579865 1.0070192 6.03254358 0.3125 2.8125 C0.209375 1.884375 0.10625 0.95625 0 0 Z " fill="#B0B0BB" transform="translate(335,130)"/>
<path d="M0 0 C1.32 0.66 2.64 1.32 4 2 C3.34 3.32 2.68 4.64 2 6 C1.01 6 0.02 6 -1 6 C-0.67 4.02 -0.34 2.04 0 0 Z " fill="#E4E0DB" transform="translate(258,333)"/>
<path d="M0 0 C1.0625 1.875 1.0625 1.875 2 4 C1.67 4.66 1.34 5.32 1 6 C1.66 6.33 2.32 6.66 3 7 C3 7.66 3 8.32 3 9 C2.34 9 1.68 9 1 9 C-1.14809171 5.77786243 -1.29386153 4.72224599 -1 1 C-0.67 0.67 -0.34 0.34 0 0 Z " fill="#7E8E96" transform="translate(273,320)"/>
<path d="M0 0 C0.66 0.33 1.32 0.66 2 1 C1.3125 2.9375 1.3125 2.9375 0 5 C-2.625 5.75 -2.625 5.75 -5 6 C-3.63016497 2.83884224 -3.0109362 2.0072908 0 0 Z " fill="#EEEBE8" transform="translate(278,254)"/>
<path d="M0 0 C1.32 0.33 2.64 0.66 4 1 C3.67 1.99 3.34 2.98 3 4 C3.66 4.33 4.32 4.66 5 5 C3.68 5.33 2.36 5.66 1 6 C0 3 0 3 0 0 Z " fill="#EDE8E4" transform="translate(368,198)"/>
<path d="M0 0 C1.09658936 3.28976808 0.79953138 4.71303767 0 8 C-1.32 6.35 -2.64 4.7 -4 3 C-3 1 -3 1 0 0 Z " fill="#A6A6A7" transform="translate(134,332)"/>
<path d="M0 0 C0.66 0.33 1.32 0.66 2 1 C1.67 2.65 1.34 4.3 1 6 C0.34 5.67 -0.32 5.34 -1 5 C-1 4.34 -1 3.68 -1 3 C-1.66 3 -2.32 3 -3 3 C-3 2.34 -3 1.68 -3 1 C-2.01 0.67 -1.02 0.34 0 0 Z " fill="#ABADB5" transform="translate(171,292)"/>
<path d="M0 0 C0.33 0.99 0.66 1.98 1 3 C2.65 3.33 4.3 3.66 6 4 C5.34 4.66 4.68 5.32 4 6 C4 5.34 4 4.68 4 4 C2.02 4.33 0.04 4.66 -2 5 C-2 4.34 -2 3.68 -2 3 C-1.34 3 -0.68 3 0 3 C0 2.01 0 1.02 0 0 Z " fill="#BAB9BA" transform="translate(347,228)"/>
<path d="M0 0 C2 3 2 3 1.625 5.1875 C1.41875 5.785625 1.2125 6.38375 1 7 C-0.32 6.34 -1.64 5.68 -3 5 C-2.01 3.35 -1.02 1.7 0 0 Z " fill="#EFEAE0" transform="translate(307,208)"/>
</svg>
