<?xml version="1.0" standalone="no"?>
<!DOCTYPE svg PUBLIC "-//W3C//DTD SVG 20010904//EN"
 "http://www.w3.org/TR/2001/REC-SVG-20010904/DTD/svg10.dtd">
<svg version="1.0" xmlns="http://www.w3.org/2000/svg"
 width="1024.000000pt" height="1024.000000pt" viewBox="0 0 1024.000000 1024.000000"
 preserveAspectRatio="xMidYMid meet">

<g transform="translate(0.000000,1024.000000) scale(0.100000,-0.100000)"
fill="#000000" stroke="none">
<path d="M6165 7903 c-118 -26 -232 -89 -323 -176 -54 -52 -118 -135 -110
-142 2 -3 37 -9 76 -15 138 -19 281 -95 327 -174 14 -24 39 -96 54 -159 33
-135 62 -201 124 -282 90 -119 217 -205 499 -338 234 -110 340 -168 440 -242
99 -73 243 -223 377 -390 57 -72 110 -131 117 -133 8 -2 17 4 20 13 7 18 -14
62 -201 405 -67 124 -204 387 -305 585 -101 198 -206 401 -233 450 -193 346
-384 532 -604 589 -57 15 -209 20 -258 9z m250 -258 c51 -50 18 -135 -52 -135
-44 0 -83 37 -83 80 0 19 9 40 25 55 15 16 36 25 55 25 19 0 40 -9 55 -25z"/>
<path d="M4155 7770 c-378 -43 -605 -160 -926 -480 -214 -214 -428 -472 -647
-782 -105 -149 -127 -194 -127 -263 0 -71 21 -118 96 -218 154 -204 424 -436
625 -536 135 -67 211 -86 349 -86 114 0 123 2 187 32 123 58 197 161 246 340
26 97 26 102 26 413 -1 245 -7 389 -27 649 -15 184 -27 340 -27 348 0 8 12 13
35 13 26 0 39 -6 51 -25 57 -87 128 -1070 95 -1315 -37 -278 -131 -440 -303
-524 -277 -134 -591 -59 -966 231 l-82 64 -26 -58 c-274 -614 -340 -1192 -199
-1754 177 -707 680 -1225 1430 -1472 215 -71 522 -133 775 -157 306 -29 770
-22 1044 16 413 57 655 203 800 483 74 143 102 235 131 421 22 142 41 213 75
279 57 114 157 196 275 225 40 10 131 17 270 19 228 5 280 14 383 66 81 41
138 94 194 180 100 153 170 332 171 437 1 82 -25 121 -144 216 -109 87 -161
159 -177 244 -6 33 -18 100 -27 149 -9 51 -29 117 -46 151 -82 166 -273 315
-512 400 -44 15 -81 34 -85 42 -3 9 0 40 7 71 68 309 72 331 78 471 5 130 4
148 -12 163 -49 50 -202 -71 -660 -523 -311 -307 -325 -319 -490 -430 -316
-213 -486 -349 -738 -588 -71 -67 -139 -125 -152 -128 -47 -12 -173 76 -241
168 -166 226 -149 514 42 704 133 133 261 161 600 133 218 -17 410 14 574 93
111 55 230 170 278 271 31 64 72 208 72 253 0 11 8 28 19 38 10 9 36 53 57 99
34 73 39 91 39 157 0 133 -23 147 -454 280 -330 102 -390 124 -454 169 -60 41
-102 100 -193 272 -42 79 -92 168 -111 196 -135 203 -330 316 -638 369 -107
18 -446 27 -560 14z m960 -784 c91 -38 103 -193 19 -250 -54 -37 -119 -24
-167 33 -53 64 -28 184 46 216 41 18 60 18 102 1z m2296 -2133 c21 -18 43
-132 35 -177 -9 -48 -35 -53 -94 -21 -48 26 -172 130 -172 144 0 10 128 68
160 73 30 5 50 -1 71 -19z m-4289 -425 c202 -76 407 -261 542 -488 26 -44 54
-80 61 -80 8 0 63 32 122 70 195 127 393 217 579 264 176 43 241 51 439 51
216 0 335 -19 524 -81 111 -37 340 -143 426 -197 161 -101 333 -260 448 -412
l66 -89 -30 -40 c-138 -189 -365 -363 -584 -447 -216 -84 -475 -121 -701 -101
-389 35 -685 148 -1059 407 -203 140 -228 155 -256 155 -24 0 -50 -19 -127
-92 -160 -151 -327 -253 -478 -292 -109 -28 -110 -26 -57 55 218 338 229 813
27 1209 -24 47 -53 100 -65 117 l-21 33 34 -6 c18 -4 68 -20 110 -36z m4865
-166 c8 -5 5 -20 -12 -56 -36 -74 -38 -75 -84 -8 -23 34 -41 63 -41 66 0 9
123 7 137 -2z"/>
<path d="M5342 3763 c-63 -99 -76 -146 -76 -278 0 -106 3 -128 26 -187 35 -89
95 -175 156 -227 59 -48 71 -52 43 -12 -38 54 -101 195 -121 276 -31 119 -36
269 -12 380 11 50 18 91 17 93 -1 1 -16 -19 -33 -45z"/>
<path d="M5639 3717 c-95 -64 -51 -217 62 -217 77 0 129 50 129 122 -1 96
-109 150 -191 95z"/>
</g>
</svg>
